# xmcd
#
# Track frame offsets: 
#        182
#        4365
#        26012
#        43840
#        59687
#        79297
#        98102
#        125572
#        150152
#        170110
#        193097
#        215930
#
# Disc length: 3138 seconds
#
# Revision: 10
# Processed by: cddbd v1.5.2PL0 Copyright (c) Steve Scherf et al.
# Submitted via: ExactAudioCopyFreeDBPlugin 1.0
#
DISCID=af0c400c
DTITLE=Vanessa Williams - The Sweetest Days
DYEAR=1994
DGENRE=SMB
TTITLE0=Intro-Lude
TTITLE1=The Way That You Love
TTITLE2=Betcha Never
TTITLE3=The Sweetest Days
TTITLE4=Higher Ground
TTITLE5=You Don't Have to Say You're Sorry
TTITLE6=Ellamental
TTITLE7=Sister Moon
TTITLE8=You Can't Run
TTITLE9=Moonlight Over Paris
TTITLE10=Constantly
TTITLE11=Long Way Home
EXTD=YEAR: 1994 ID3G:  12
EXTT0=
EXTT1=
EXTT2=
EXTT3=
EXTT4=
EXTT5=
EXTT6=
EXTT7=
EXTT8=
EXTT9=
EXTT10=
EXTT11=
PLAYORDER=
